<svg xmlns="http://www.w3.org/2000/svg" width="400" height="260" fill="none">
  <rect width="400" height="260" rx="8" fill="#F8FAFC"/>
  <rect x="120" y="15" width="160" height="12" rx="3" fill="#2D3748"/>
  <!-- Form -->
  <rect x="20" y="45" width="200" height="195" rx="8" fill="white" stroke="#E2E8F0" stroke-width="1"/>
  <rect x="36" y="62" width="168" height="22" rx="4" fill="#F1F5F9"/>
  <rect x="36" y="92" width="168" height="22" rx="4" fill="#F1F5F9"/>
  <rect x="36" y="122" width="168" height="55" rx="4" fill="#F1F5F9"/>
  <rect x="36" y="192" width="168" height="28" rx="6" fill="#2D3748"/>
  <text x="82" y="211" font-family="system-ui" font-size="10" fill="white" font-weight="600">Send Message</text>
  <!-- Info -->
  <rect x="236" y="45" width="144" height="195" rx="8" fill="white" stroke="#E2E8F0" stroke-width="1"/>
  <rect x="252" y="62" width="100" height="8" rx="2" fill="#2D3748"/>
  <rect x="252" y="80" width="110" height="5" rx="1" fill="#64748B" opacity="0.4"/>
  <rect x="252" y="92" width="90" height="5" rx="1" fill="#64748B" opacity="0.4"/>
  <rect x="252" y="115" width="80" height="8" rx="2" fill="#2D3748"/>
  <rect x="252" y="132" width="100" height="5" rx="1" fill="#64748B" opacity="0.4"/>
  <rect x="252" y="144" width="100" height="5" rx="1" fill="#64748B" opacity="0.4"/>
</svg>