<svg xmlns="http://www.w3.org/2000/svg" width="400" height="260" fill="none">
  <rect width="400" height="260" rx="8" fill="#F8FAFC"/>
  <rect x="120" y="15" width="160" height="12" rx="3" fill="#2D3748"/>
  <!-- Card 1 -->
  <rect x="20" y="45" width="110" height="195" rx="8" fill="white" stroke="#E2E8F0" stroke-width="1"/>
  <rect x="24" y="49" width="102" height="65" rx="6" fill="#E2E8F0"/>
  <rect x="32" y="58" width="40" height="16" rx="4" fill="#2D3748" opacity="0.7"/>
  <text x="38" y="70" font-family="system-ui" font-size="8" fill="white" font-weight="600">MAR 22</text>
  <rect x="32" y="125" width="80" height="8" rx="2" fill="#2D3748"/>
  <rect x="32" y="140" width="60" height="5" rx="1" fill="#6366F1" opacity="0.5"/>
  <!-- Card 2 -->
  <rect x="145" y="45" width="110" height="195" rx="8" fill="white" stroke="#E2E8F0" stroke-width="1"/>
  <rect x="149" y="49" width="102" height="65" rx="6" fill="#E2E8F0"/>
  <rect x="157" y="58" width="40" height="16" rx="4" fill="#2D3748" opacity="0.7"/>
  <text x="163" y="70" font-family="system-ui" font-size="8" fill="white" font-weight="600">APR 15</text>
  <rect x="157" y="125" width="80" height="8" rx="2" fill="#2D3748"/>
  <rect x="157" y="140" width="60" height="5" rx="1" fill="#6366F1" opacity="0.5"/>
  <!-- Card 3 -->
  <rect x="270" y="45" width="110" height="195" rx="8" fill="white" stroke="#E2E8F0" stroke-width="1"/>
  <rect x="274" y="49" width="102" height="65" rx="6" fill="#E2E8F0"/>
  <rect x="282" y="58" width="40" height="16" rx="4" fill="#2D3748" opacity="0.7"/>
  <text x="288" y="70" font-family="system-ui" font-size="8" fill="white" font-weight="600">MAY 01</text>
  <rect x="282" y="125" width="80" height="8" rx="2" fill="#2D3748"/>
  <rect x="282" y="140" width="60" height="5" rx="1" fill="#6366F1" opacity="0.5"/>
</svg>