<svg xmlns="http://www.w3.org/2000/svg" width="400" height="260" fill="none">
  <rect width="400" height="260" rx="8" fill="#F8FAFC"/>
  <rect x="80" y="15" width="240" height="12" rx="3" fill="#2D3748"/>
  <rect x="40" y="45" width="320" height="42" rx="8" fill="white" stroke="#E2E8F0" stroke-width="1"/>
  <rect x="56" y="60" width="200" height="8" rx="2" fill="#2D3748"/>
  <rect x="332" y="60" width="16" height="8" rx="2" fill="#6366F1"/>
  <rect x="40" y="97" width="320" height="42" rx="8" fill="white" stroke="#E2E8F0" stroke-width="1"/>
  <rect x="56" y="112" width="180" height="8" rx="2" fill="#2D3748"/>
  <rect x="332" y="112" width="16" height="8" rx="2" fill="#6366F1"/>
  <rect x="40" y="149" width="320" height="42" rx="8" fill="white" stroke="#E2E8F0" stroke-width="1"/>
  <rect x="56" y="164" width="160" height="8" rx="2" fill="#2D3748"/>
  <rect x="332" y="164" width="16" height="8" rx="2" fill="#6366F1"/>
  <rect x="40" y="201" width="320" height="42" rx="8" fill="white" stroke="#E2E8F0" stroke-width="1"/>
  <rect x="56" y="216" width="140" height="8" rx="2" fill="#2D3748"/>
  <rect x="332" y="216" width="16" height="8" rx="2" fill="#6366F1"/>
</svg>