<svg xmlns="http://www.w3.org/2000/svg" width="400" height="260" fill="none">
  <rect width="400" height="260" rx="8" fill="#F8FAFC"/>
  <rect x="110" y="20" width="180" height="14" rx="3" fill="#2D3748"/>
  <rect x="140" y="55" width="120" height="32" rx="8" fill="#F472B6"/>
  <text x="167" y="76" font-family="system-ui" font-size="11" fill="#2D3748" font-weight="600">Give Now</text>
  <rect x="30" y="110" width="100" height="130" rx="8" fill="white" stroke="#E2E8F0" stroke-width="1"/>
  <circle cx="80" cy="148" r="18" fill="#6366F1" opacity="0.12"/>
  <rect x="50" y="180" width="60" height="7" rx="2" fill="#2D3748"/>
  <rect x="42" y="195" width="76" height="5" rx="1" fill="#64748B" opacity="0.4"/>
  <rect x="150" y="110" width="100" height="130" rx="8" fill="white" stroke="#E2E8F0" stroke-width="1"/>
  <circle cx="200" cy="148" r="18" fill="#6366F1" opacity="0.12"/>
  <rect x="170" y="180" width="60" height="7" rx="2" fill="#2D3748"/>
  <rect x="162" y="195" width="76" height="5" rx="1" fill="#64748B" opacity="0.4"/>
  <rect x="270" y="110" width="100" height="130" rx="8" fill="white" stroke="#E2E8F0" stroke-width="1"/>
  <circle cx="320" cy="148" r="18" fill="#6366F1" opacity="0.12"/>
  <rect x="290" y="180" width="60" height="7" rx="2" fill="#2D3748"/>
  <rect x="282" y="195" width="76" height="5" rx="1" fill="#64748B" opacity="0.4"/>
</svg>