<svg xmlns="http://www.w3.org/2000/svg" width="400" height="260" fill="none">
  <rect width="400" height="260" rx="8" fill="#F8FAFC"/>
  <rect x="130" y="15" width="140" height="12" rx="3" fill="#2D3748"/>
  <!-- Card 1 -->
  <rect x="20" y="45" width="110" height="195" rx="8" fill="white" stroke="#E2E8F0" stroke-width="1"/>
  <circle cx="75" cy="100" r="30" fill="#E2E8F0"/>
  <rect x="40" y="145" width="70" height="8" rx="2" fill="#2D3748"/>
  <rect x="45" y="160" width="60" height="6" rx="2" fill="#6366F1" opacity="0.6"/>
  <!-- Card 2 -->
  <rect x="145" y="45" width="110" height="195" rx="8" fill="white" stroke="#E2E8F0" stroke-width="1"/>
  <circle cx="200" cy="100" r="30" fill="#E2E8F0"/>
  <rect x="165" y="145" width="70" height="8" rx="2" fill="#2D3748"/>
  <rect x="170" y="160" width="60" height="6" rx="2" fill="#6366F1" opacity="0.6"/>
  <!-- Card 3 -->
  <rect x="270" y="45" width="110" height="195" rx="8" fill="white" stroke="#E2E8F0" stroke-width="1"/>
  <circle cx="325" cy="100" r="30" fill="#E2E8F0"/>
  <rect x="290" y="145" width="70" height="8" rx="2" fill="#2D3748"/>
  <rect x="295" y="160" width="60" height="6" rx="2" fill="#6366F1" opacity="0.6"/>
</svg>