<svg xmlns="http://www.w3.org/2000/svg" width="400" height="260" fill="none">
  <rect width="400" height="260" rx="8" fill="#F8FAFC"/>
  <rect x="120" y="15" width="160" height="12" rx="3" fill="#2D3748"/>
  <rect x="20" y="45" width="170" height="195" rx="8" fill="white" stroke="#E2E8F0" stroke-width="1"/>
  <text x="36" y="75" font-family="Georgia,serif" font-size="32" fill="#6366F1" opacity="0.25">"</text>
  <rect x="36" y="90" width="138" height="5" rx="1" fill="#64748B" opacity="0.4"/>
  <rect x="36" y="102" width="120" height="5" rx="1" fill="#64748B" opacity="0.4"/>
  <rect x="36" y="114" width="100" height="5" rx="1" fill="#64748B" opacity="0.4"/>
  <circle cx="52" cy="200" r="14" fill="#E2E8F0"/>
  <rect x="74" y="195" width="70" height="8" rx="2" fill="#2D3748"/>
  <rect x="210" y="45" width="170" height="195" rx="8" fill="white" stroke="#E2E8F0" stroke-width="1"/>
  <text x="226" y="75" font-family="Georgia,serif" font-size="32" fill="#6366F1" opacity="0.25">"</text>
  <rect x="226" y="90" width="138" height="5" rx="1" fill="#64748B" opacity="0.4"/>
  <rect x="226" y="102" width="120" height="5" rx="1" fill="#64748B" opacity="0.4"/>
  <rect x="226" y="114" width="100" height="5" rx="1" fill="#64748B" opacity="0.4"/>
  <circle cx="242" cy="200" r="14" fill="#E2E8F0"/>
  <rect x="264" y="195" width="70" height="8" rx="2" fill="#2D3748"/>
</svg>