<svg width="160" height="50" viewBox="0 0 160 50" fill="none" xmlns="http://www.w3.org/2000/svg">
<g clip-path="url(#clip0_13_156)">
<path d="M155 50H5C2.25 50 0 47.75 0 45V5C0 2.25 2.25 0 5 0H155C157.75 0 160 2.25 160 5V45C160 47.75 157.75 50 155 50Z" fill="black"/>
<path d="M33.7495 24.75C33.7495 20.875 36.9995 19 37.1245 18.875C35.2495 16.25 32.4995 15.875 31.4995 15.75C29.1245 15.5 26.7495 17.125 25.6245 17.125C24.3745 17.125 22.4995 15.75 20.4995 15.75C17.8745 15.75 15.4995 17.25 14.1245 19.625C11.3745 24.375 13.3745 31.375 15.9995 35.25C17.3745 37.125 18.8745 39.25 20.8745 39.125C22.8745 39 23.6245 37.875 25.9995 37.875C28.3745 37.875 28.9995 39.125 31.1245 39.125C33.2495 39.125 34.6245 37.25 35.8745 35.375C37.3745 33.25 37.9995 31.125 37.9995 31C37.8745 30.875 33.7495 29.375 33.7495 24.75Z" fill="white"/>
<path d="M29.8752 13.25C30.8752 11.875 31.6252 10.125 31.5002 8.25C30.0002 8.375 28.0002 9.25 27.0002 10.625C26.0002 11.75 25.1252 13.625 25.3752 15.375C27.0002 15.5 28.7502 14.5 29.8752 13.25Z" fill="white"/>
<path d="M62.25 38.875H59.5L58 34.125H52.75L51.375 38.875H48.75L54 22.75H57.25L62.25 38.875ZM57.5 32.125L56.125 27.875C56 27.5 55.75 26.375 55.25 24.875C55.125 25.5 54.875 26.625 54.5 27.875L53.125 32.125H57.5Z" fill="white"/>
<path d="M75.625 33C75.625 35 75.125 36.5 74 37.75C73 38.75 71.875 39.25 70.375 39.25C68.875 39.25 67.75 38.75 67.125 37.625V43.75H64.5V31.25C64.5 30 64.5 28.75 64.375 27.375H66.625L66.75 29.25C67.625 27.875 68.875 27.125 70.625 27.125C72 27.125 73.125 27.625 74 28.75C75.125 29.75 75.625 31.125 75.625 33ZM73 33C73 31.875 72.75 30.875 72.25 30.25C71.75 29.5 71 29.125 70 29.125C69.375 29.125 68.75 29.375 68.25 29.75C67.75 30.125 67.375 30.75 67.25 31.375C67.125 31.75 67.125 32 67.125 32.125V34.125C67.125 35 67.375 35.625 67.875 36.25C68.375 36.875 69.125 37.125 69.875 37.125C70.875 37.125 71.625 36.75 72.125 36C72.75 35.25 73 34.25 73 33Z" fill="white"/>
<path d="M89 33C89 35 88.5 36.5 87.375 37.75C86.375 38.75 85.25 39.25 83.75 39.25C82.25 39.25 81.125 38.75 80.5 37.625V43.75H77.875V31.25C77.875 30 77.875 28.75 77.75 27.375H80L80.125 29.25C81 27.875 82.25 27.125 84 27.125C85.375 27.125 86.5 27.625 87.375 28.75C88.5 29.75 89 31.125 89 33ZM86.375 33C86.375 31.875 86.125 30.875 85.625 30.25C85.125 29.5 84.375 29.125 83.375 29.125C82.75 29.125 82.125 29.375 81.625 29.75C81.125 30.125 80.75 30.75 80.625 31.375C80.5 31.75 80.5 32 80.5 32.125V34.125C80.5 35 80.75 35.625 81.25 36.25C81.75 36.875 82.5 37.125 83.25 37.125C84.25 37.125 85 36.75 85.5 36C86.125 35.25 86.375 34.25 86.375 33Z" fill="white"/>
<path d="M104 34.375C104 35.75 103.5 36.875 102.625 37.75C101.625 38.75 100.125 39.125 98.25 39.125C96.5 39.125 95.125 38.75 94.125 38.125L94.75 36C95.875 36.625 97.125 37 98.5 37C99.5 37 100.25 36.75 100.75 36.375C101.25 35.875 101.5 35.375 101.5 34.625C101.5 34 101.25 33.375 100.875 33C100.375 32.5 99.625 32.125 98.625 31.75C95.75 30.75 94.375 29.125 94.375 27.125C94.375 25.75 94.875 24.75 95.875 23.875C96.875 23 98.125 22.625 99.875 22.625C101.375 22.625 102.5 22.875 103.5 23.375L102.875 25.5C102 25 101 24.75 99.75 24.75C98.875 24.75 98.125 25 97.625 25.375C97.25 25.75 97 26.25 97 26.875C97 27.5 97.25 28 97.75 28.5C98.125 28.875 99 29.25 100.125 29.75C101.5 30.25 102.5 31 103.25 31.75C103.625 32.375 104 33.25 104 34.375Z" fill="white"/>
<path d="M112.5 29.25H109.625V34.875C109.625 36.25 110.125 37 111.125 37C111.625 37 112 37 112.25 36.875L112.375 38.875C111.875 39.125 111.25 39.125 110.375 39.125C109.375 39.125 108.5 38.875 108 38.25C107.375 37.625 107.125 36.625 107.125 35.125V29.25H105.375V27.25H107.125V25.125L109.625 24.375V27.25H112.5V29.25Z" fill="white"/>
<path d="M125.375 33C125.375 34.75 124.875 36.25 123.875 37.375C122.75 38.5 121.375 39.125 119.625 39.125C117.875 39.125 116.5 38.5 115.5 37.375C114.5 36.25 114 34.875 114 33.125C114 31.375 114.5 29.875 115.625 28.75C116.625 27.625 118.125 27 119.875 27C121.625 27 123 27.625 124 28.75C124.875 29.875 125.375 31.25 125.375 33ZM122.625 33.125C122.625 32 122.375 31.125 121.875 30.375C121.375 29.5 120.5 29 119.5 29C118.5 29 117.625 29.5 117.125 30.375C116.625 31.125 116.375 32.125 116.375 33.125C116.375 34.25 116.625 35.125 117.125 35.875C117.625 36.75 118.5 37.25 119.5 37.25C120.5 37.25 121.25 36.75 121.875 35.875C122.375 35.125 122.625 34.125 122.625 33.125Z" fill="white"/>
<path d="M133.75 29.5C133.5 29.5 133.25 29.375 132.875 29.375C132 29.375 131.25 29.75 130.75 30.375C130.375 31 130.125 31.75 130.125 32.625V38.75H127.5V30.75C127.5 29.375 127.5 28.25 127.375 27.125H129.625L129.75 29.375H129.875C130.125 28.625 130.625 28 131.125 27.5C131.75 27.125 132.375 26.875 133 26.875C133.25 26.875 133.5 26.875 133.625 26.875L133.75 29.5Z" fill="white"/>
<path d="M145.25 32.5C145.25 33 145.25 33.375 145.125 33.625H137.375C137.375 34.75 137.75 35.625 138.5 36.25C139.125 36.75 140 37.125 141 37.125C142.125 37.125 143.25 37 144.125 36.625L144.5 38.375C143.375 38.875 142.125 39.125 140.625 39.125C138.875 39.125 137.375 38.625 136.375 37.5C135.375 36.5 134.875 35 134.875 33.25C134.875 31.5 135.375 30 136.25 28.875C137.25 27.625 138.625 27 140.375 27C142 27 143.375 27.625 144.125 28.875C145 29.875 145.25 31.125 145.25 32.5ZM142.875 31.875C142.875 31.125 142.75 30.5 142.375 29.875C141.875 29.125 141.25 28.75 140.375 28.75C139.5 28.75 138.875 29.125 138.375 29.75C138 30.25 137.75 31 137.625 31.75H142.875V31.875Z" fill="white"/>
<path d="M56.75 12.875C56.75 14.25 56.375 15.375 55.5 16.125C54.75 16.75 53.625 17.125 52.125 17.125C51.375 17.125 50.75 17.125 50.25 17V9.25C50.875 9.125 51.625 9.125 52.5 9.125C53.875 9.125 54.875 9.375 55.625 10C56.25 10.625 56.75 11.625 56.75 12.875ZM55.375 12.875C55.375 12 55.125 11.25 54.625 10.75C54.125 10.25 53.375 10 52.5 10C52.125 10 51.75 10 51.5 10.125V16C51.625 16 52 16 52.375 16C53.375 16 54.125 15.75 54.625 15.25C55.125 14.75 55.375 13.875 55.375 12.875Z" fill="white"/>
<path d="M63.75 14.125C63.75 15 63.5 15.75 63 16.25C62.5 16.875 61.75 17.125 60.875 17.125C60 17.125 59.375 16.875 58.875 16.25C58.375 15.75 58.125 15 58.125 14.125C58.125 13.25 58.375 12.5 58.875 12C59.375 11.375 60.125 11.125 61 11.125C61.875 11.125 62.5 11.375 63 12C63.5 12.5 63.75 13.25 63.75 14.125ZM62.5 14.125C62.5 13.625 62.375 13.125 62.125 12.75C61.875 12.25 61.5 12.125 61 12.125C60.5 12.125 60.125 12.375 59.875 12.75C59.625 13.125 59.5 13.625 59.5 14.125C59.5 14.625 59.625 15.125 59.875 15.5C60.125 16 60.5 16.125 61 16.125C61.5 16.125 61.875 15.875 62.125 15.375C62.375 15.125 62.5 14.625 62.5 14.125Z" fill="white"/>
<path d="M73.375 11.25L71.625 17H70.5L69.75 14.5C69.5 13.875 69.375 13.25 69.25 12.625C69.125 13.25 69 13.875 68.75 14.5L68 17H66.875L65 11.25H66.25L66.875 14C67 14.625 67.125 15.25 67.25 15.875C67.375 15.375 67.5 14.75 67.75 14L68.5 11.25H69.5L70.25 13.875C70.5 14.5 70.625 15.125 70.75 15.75C70.875 15.125 71 14.5 71.125 13.875L71.875 11.25H73.375Z" fill="white"/>
<path d="M79.875 17H78.625V13.75C78.625 12.75 78.25 12.25 77.5 12.25C77.125 12.25 76.875 12.375 76.625 12.625C76.375 12.875 76.25 13.25 76.25 13.625V17H75V12.875C75 12.375 75 11.875 75 11.25H76.125V12.125C76.25 11.875 76.5 11.625 76.75 11.375C77.125 11.125 77.5 11 77.875 11C78.375 11 78.875 11.125 79.25 11.5C79.75 11.875 79.875 12.5 79.875 13.375V17Z" fill="white"/>
<path d="M83.375 17H82.125V8.625H83.375V17Z" fill="white"/>
<path d="M90.875 14.125C90.875 15 90.625 15.75 90.125 16.25C89.625 16.875 88.875 17.125 88 17.125C87.125 17.125 86.5 16.875 86 16.25C85.5 15.75 85.25 15 85.25 14.125C85.25 13.25 85.5 12.5 86 12C86.5 11.5 87.25 11.125 88.125 11.125C89 11.125 89.625 11.375 90.125 12C90.625 12.5 90.875 13.25 90.875 14.125ZM89.625 14.125C89.625 13.625 89.5 13.125 89.25 12.75C89 12.25 88.625 12.125 88.125 12.125C87.625 12.125 87.25 12.375 87 12.75C86.75 13.125 86.625 13.625 86.625 14.125C86.625 14.625 86.75 15.125 87 15.5C87.25 16 87.625 16.125 88.125 16.125C88.625 16.125 89 15.875 89.25 15.375C89.5 15.125 89.625 14.625 89.625 14.125Z" fill="white"/>
<path d="M97 17H95.875L95.75 16.375C95.375 16.875 94.75 17.125 94.125 17.125C93.625 17.125 93.125 17 92.875 16.625C92.625 16.25 92.375 15.875 92.375 15.5C92.375 14.75 92.625 14.25 93.25 13.875C93.875 13.5 94.625 13.375 95.75 13.375V13.25C95.75 12.5 95.375 12.125 94.625 12.125C94 12.125 93.625 12.25 93.125 12.5L92.875 11.625C93.375 11.25 94 11.125 94.875 11.125C96.375 11.125 97.125 11.875 97.125 13.5V15.625C97 16.25 97 16.625 97 17ZM95.75 15V14.125C94.375 14.125 93.625 14.5 93.625 15.25C93.625 15.5 93.75 15.75 93.875 15.875C94 16 94.25 16.125 94.5 16.125C94.75 16.125 95 16 95.25 15.875C95.5 15.75 95.625 15.5 95.75 15.25C95.75 15.25 95.75 15.125 95.75 15Z" fill="white"/>
<path d="M104.25 17H103.125V16.125C102.75 16.875 102.125 17.125 101.25 17.125C100.5 17.125 100 16.875 99.5 16.375C99 15.875 98.875 15.125 98.875 14.25C98.875 13.375 99.125 12.625 99.625 12C100.125 11.5 100.75 11.25 101.375 11.25C102.125 11.25 102.625 11.5 103 12V8.75H104.25V15.5C104.25 16 104.25 16.5 104.25 17ZM103 14.625V13.625C103 13.5 103 13.375 103 13.25C102.875 13 102.75 12.75 102.5 12.5C102.25 12.25 102 12.25 101.625 12.25C101.125 12.25 100.75 12.5 100.5 12.875C100.25 13.25 100.125 13.75 100.125 14.375C100.125 15 100.25 15.375 100.5 15.75C100.75 16.125 101.125 16.375 101.625 16.375C102 16.375 102.375 16.25 102.625 15.875C102.875 15.375 103 15 103 14.625Z" fill="white"/>
<path d="M115.125 14.125C115.125 15 114.875 15.75 114.375 16.25C113.875 16.875 113.125 17.125 112.25 17.125C111.375 17.125 110.75 16.875 110.25 16.25C109.75 15.75 109.5 15 109.5 14.125C109.5 13.25 109.75 12.5 110.25 12C110.75 11.375 111.5 11.125 112.375 11.125C113.25 11.125 113.875 11.375 114.375 12C114.875 12.5 115.125 13.25 115.125 14.125ZM113.75 14.125C113.75 13.625 113.625 13.125 113.375 12.75C113.125 12.25 112.75 12.125 112.25 12.125C111.75 12.125 111.375 12.375 111.125 12.75C110.875 13.125 110.75 13.625 110.75 14.125C110.75 14.625 110.875 15.125 111.125 15.5C111.375 16 111.75 16.125 112.25 16.125C112.75 16.125 113.125 15.875 113.375 15.375C113.625 15.125 113.75 14.625 113.75 14.125Z" fill="white"/>
<path d="M122 17H120.75V13.75C120.75 12.75 120.375 12.25 119.625 12.25C119.25 12.25 119 12.375 118.75 12.625C118.5 12.875 118.375 13.25 118.375 13.625V17H117.125V12.875C117.125 12.375 117.125 11.875 117.125 11.25H118.25V12.125C118.375 11.875 118.625 11.625 118.875 11.375C119.25 11.125 119.625 11 120 11C120.5 11 121 11.125 121.375 11.5C121.875 11.875 122 12.5 122 13.375V17Z" fill="white"/>
<path d="M130.5 12.25H129.125V15C129.125 15.75 129.375 16 129.875 16C130.125 16 130.25 16 130.5 16V17C130.25 17.125 129.875 17.125 129.5 17.125C129 17.125 128.625 17 128.375 16.625C128.125 16.375 128 15.75 128 15.125V12.25H127.125V11.25H128V10.25L129.25 9.875V11.25H130.625V12.25H130.5Z" fill="white"/>
<path d="M137.25 17H136V13.75C136 12.75 135.625 12.25 134.875 12.25C134.25 12.25 133.875 12.5 133.625 13.125C133.625 13.25 133.625 13.375 133.625 13.625V17H132.375V8.625H133.625V12.125C134 11.5 134.625 11.125 135.375 11.125C135.875 11.125 136.375 11.25 136.625 11.625C137 12 137.25 12.75 137.25 13.5V17Z" fill="white"/>
<path d="M144.125 13.875C144.125 14.125 144.125 14.25 144.125 14.5H140.375C140.375 15.125 140.625 15.5 140.875 15.75C141.25 16 141.625 16.125 142.125 16.125C142.75 16.125 143.25 16 143.625 15.875L143.875 16.75C143.375 17 142.75 17.125 142 17.125C141.125 17.125 140.375 16.875 139.875 16.375C139.375 15.875 139.125 15.125 139.125 14.25C139.125 13.375 139.375 12.625 139.875 12.125C140.375 11.5 141 11.25 141.875 11.25C142.75 11.25 143.375 11.5 143.75 12.125C144 12.5 144.125 13.125 144.125 13.875ZM143 13.5C143 13.125 142.875 12.75 142.75 12.5C142.5 12.125 142.25 12 141.75 12C141.375 12 141 12.125 140.75 12.5C140.5 12.75 140.375 13.125 140.375 13.5H143Z" fill="white"/>
</g>
<defs>
<clipPath id="clip0_13_156">
<rect width="160" height="50" fill="white"/>
</clipPath>
</defs>
</svg>
