<svg width="160" height="50" viewBox="0 0 160 50" fill="none" xmlns="http://www.w3.org/2000/svg">
<g clip-path="url(#clip0_13_182)">
<path d="M155 50H5C2.25 50 0 47.75 0 45V5C0 2.25 2.25 0 5 0H155C157.75 0 160 2.25 160 5V45C160 47.75 157.75 50 155 50Z" fill="black"/>
<path fill-rule="evenodd" clip-rule="evenodd" d="M12.25 24.5V11.375C12.25 10.625 12.875 10 13.5 10C14.125 10 14.375 10.125 14.75 10.375L38.875 23.625C39.375 23.875 39.625 24.25 39.625 24.625C39.625 25 39.375 25.375 38.875 25.625L14.75 38.875C14.5 39 14.125 39.25 13.5 39.25C12.875 39.25 12.25 38.625 12.25 37.875V24.5Z" fill="url(#paint0_linear_13_182)"/>
<path fill-rule="evenodd" clip-rule="evenodd" d="M27.875 24.625L13.25 10C13.375 10 13.375 10 13.5 10C14.125 10 14.375 10.125 14.75 10.375L32.5 20.125L27.875 24.625Z" fill="url(#paint1_linear_13_182)"/>
<path fill-rule="evenodd" clip-rule="evenodd" d="M32.375 29L27.875 24.5L32.5 19.875L38.875 23.375C39.375 23.625 39.625 24 39.625 24.375C39.625 24.75 39.375 25.125 38.875 25.375L32.375 29Z" fill="url(#paint2_linear_13_182)"/>
<path fill-rule="evenodd" clip-rule="evenodd" d="M13.375 39L27.875 24.5L32.375 29L14.75 38.625C14.375 38.875 14.125 39 13.375 39C13.5 39 13.5 39 13.375 39Z" fill="url(#paint3_linear_13_182)"/>
<path fill-rule="evenodd" clip-rule="evenodd" d="M88.875 42.375C88.25 41.875 87.75 41 87.5 40.5L89.5 39.625C89.625 39.875 89.875 40.25 90.125 40.625C90.625 41.125 91.375 41.625 92.125 41.625C92.875 41.625 93.75 41.25 94.25 40.625C94.625 40 94.875 39.375 94.875 38.5V37.75C93.375 39.625 90.25 39.375 88.5 37.375C86.625 35.375 86.625 32 88.5 30C90.375 28.125 93.125 27.875 94.75 29.625V28.75H96.875V38.125C96.875 40.5 96 41.875 94.875 42.75C94.125 43.375 93 43.625 92 43.625C90.875 43.5 89.75 43.125 88.875 42.375ZM141.25 42.875L143.375 37.875L139.625 29.25H141.75L144.375 35.375L147 29.25H149.125L143.375 42.875H141.25ZM131.125 38.125C130.5 37.5 130.25 36.625 130.25 35.75C130.25 35 130.5 34.25 131 33.75C131.875 32.875 133.125 32.5 134.5 32.5C135.375 32.5 136.125 32.625 136.75 33C136.75 31.5 135.5 30.875 134.5 30.875C133.625 30.875 132.75 31.375 132.375 32.25L130.5 31.5C130.875 30.625 131.875 29 134.375 29C135.625 29 136.875 29.375 137.625 30.25C138.375 31.125 138.625 32.125 138.625 33.5V38.75H136.5V37.875C136.25 38.25 135.75 38.5 135.375 38.75C134.875 39 134.25 39.125 133.625 39.125C132.875 39 131.75 38.75 131.125 38.125ZM64.5 33.625C64.5 31.125 66.375 28.375 69.75 28.375C73 28.375 75 31.125 75 33.625C75 36.125 73.125 38.875 69.75 38.875C66.375 38.875 64.5 36.125 64.5 33.625ZM75.75 33.625C75.75 31.125 77.625 28.375 81 28.375C84.25 28.375 86.25 31.125 86.25 33.625C86.25 36.125 84.375 38.875 81 38.875C77.75 38.875 75.75 36.125 75.75 33.625ZM50.375 36.375C47.25 33.25 47.375 28.125 50.5 24.875C52.125 23.25 54.125 22.5 56.25 22.5C58.25 22.5 60.25 23.25 61.75 24.75L60.25 26.375C58 24.125 54.375 24.25 52.25 26.5C50 28.875 50 32.5 52.25 34.875C54.5 37.25 58.25 37.375 60.5 35C61.25 34.25 61.5 33.25 61.625 32.25H56.375V30H63.75C63.875 30.5 63.875 31.125 63.875 31.75C63.875 33.625 63.125 35.5 61.875 36.75C60.5 38.125 58.5 38.875 56.5 38.875C54.25 38.75 52 38 50.375 36.375ZM103.25 37.25C101.375 35.25 101.375 31.875 103.25 29.75C105.125 27.75 108.25 27.75 110 29.75C110.625 30.375 111 31.25 111.375 32.125L104.5 35C104.875 35.875 105.75 36.625 107 36.625C108.125 36.625 108.875 36.25 109.625 35.125L111.5 36.375C111.25 36.625 111 36.875 110.875 37.125C108.75 39.25 105.125 39.25 103.25 37.25ZM116.25 38.75V24.875H120.75C123.375 24.875 125.5 26.75 125.5 29C125.5 31.25 123.625 33.125 121.25 33.125H118.5V38.625L116.25 38.75ZM126.75 38.75V24.875H128.875V38.75H126.75ZM98.5 38.5V23H100.75V38.5H98.5ZM136.625 34.625C136.125 34.25 135.375 34.125 134.625 34.125C133.125 34.125 132.25 34.875 132.25 35.75C132.25 36.625 133.125 37.125 134 37.125C135.25 37.125 136.625 36.125 136.625 34.625ZM72.625 33.625C72.625 32.125 71.625 30.5 69.75 30.5C67.875 30.5 66.875 32.125 66.875 33.625C66.875 35.125 67.875 36.75 69.75 36.75C71.5 36.75 72.625 35.125 72.625 33.625ZM83.875 33.625C83.875 32.125 82.875 30.5 81 30.5C79.125 30.5 78.125 32.125 78.125 33.625C78.125 35.125 79.125 36.75 81 36.75C82.875 36.75 83.875 35.125 83.875 33.625ZM95 34.5C95 34.375 95 34.25 95.125 34.125C95.125 34 95.125 33.75 95.125 33.625C95.125 33.5 95.125 33.25 95.125 33.125V33C95.125 32.875 95 32.625 95 32.5C94.625 31.25 93.5 30.375 92.375 30.375C90.875 30.375 89.625 31.875 89.625 33.5C89.625 35.25 90.875 36.625 92.5 36.625C93.5 36.75 94.5 35.875 95 34.5ZM104.125 33.375L108.75 31.375C108.25 30.5 107.5 30.25 106.875 30.25C105 30.375 103.875 32.375 104.125 33.375ZM123.25 29.125C123.25 27.875 122.25 27 120.875 27H118.375V31.375H121C122.25 31.375 123.25 30.375 123.25 29.125Z" fill="white"/>
<path fill-rule="evenodd" clip-rule="evenodd" d="M142.875 40.375H142.75V40.25H142.875H142.75V40.375H142.875Z" fill="white"/>
<path fill-rule="evenodd" clip-rule="evenodd" d="M143.125 40.375C143.125 40.25 143.125 40.25 143.125 40.375C143 40.25 143 40.25 143.125 40.375C143 40.375 143 40.375 143.125 40.375ZM143.125 40.25C143.125 40.375 143.125 40.375 143.125 40.25C143 40.375 143.125 40.375 143.125 40.25Z" fill="white"/>
<path fill-rule="evenodd" clip-rule="evenodd" d="M143.25 40.25H143.125H143.25V40.375V40.25Z" fill="white"/>
<path d="M48.625 12.625C48.625 10.375 50.25 9 52.25 9C53.625 9 54.5 9.625 55.125 10.5L54.125 11.125C53.75 10.625 53.125 10.25 52.25 10.25C50.875 10.25 49.875 11.25 49.875 12.75C49.875 14.25 50.875 15.25 52.25 15.25C53 15.25 53.625 14.875 53.875 14.625V13.5H51.875V12.375H55.25V15C54.625 15.75 53.625 16.25 52.375 16.25C50.25 16.25 48.625 14.75 48.625 12.625Z" fill="white"/>
<path d="M56.75 16.125V9.125H61.5V10.25H57.875V12H61.375V13.125H57.875V15.125H61.5V16.25L56.75 16.125Z" fill="white"/>
<path d="M65 16.125V10.25H62.875V9.125H68.375V10.25H66.25V16.125H65Z" fill="white"/>
<path d="M72.625 16.125V9.125H73.875V16.125H72.625Z" fill="white"/>
<path d="M77.25 16.125V10.25H75.125V9.125H80.625V10.25H78.5V16.125H77.25Z" fill="white"/>
<path d="M84.625 12.625C84.625 10.5 86.125 9 88.25 9C90.375 9 91.875 10.5 91.875 12.625C91.875 14.75 90.375 16.25 88.25 16.25C86.125 16.25 84.625 14.625 84.625 12.625ZM90.5 12.625C90.5 11.125 89.625 10.125 88.125 10.125C86.75 10.125 85.75 11.25 85.75 12.625C85.75 14.125 86.625 15.125 88.125 15.125C89.625 15.125 90.5 14 90.5 12.625Z" fill="white"/>
<path d="M98.125 16.125L94.5 11.125V16.125H93.25V9.125H94.5L98.125 14V9.125H99.375V16.125H98.125Z" fill="white"/>
</g>
<defs>
<linearGradient id="paint0_linear_13_182" x1="20.3224" y1="8.21988" x2="27.3201" y2="36.9585" gradientUnits="userSpaceOnUse">
<stop stop-color="#006884"/>
<stop offset="1" stop-color="#8AD1D0"/>
</linearGradient>
<linearGradient id="paint1_linear_13_182" x1="11.7829" y1="12.338" x2="30.8529" y2="22.6474" gradientUnits="userSpaceOnUse">
<stop stop-color="#24BBB6"/>
<stop offset="1" stop-color="#DBE692"/>
</linearGradient>
<linearGradient id="paint2_linear_13_182" x1="33.75" y1="29.5251" x2="33.75" y2="19.5896" gradientUnits="userSpaceOnUse">
<stop stop-color="#FCC072"/>
<stop offset="1" stop-color="#F58A5B"/>
</linearGradient>
<linearGradient id="paint3_linear_13_182" x1="15.4564" y1="41.55" x2="30.521" y2="26.2185" gradientUnits="userSpaceOnUse">
<stop stop-color="#712B8F"/>
<stop offset="1" stop-color="#EA1D27"/>
</linearGradient>
<clipPath id="clip0_13_182">
<rect width="160" height="50" fill="white"/>
</clipPath>
</defs>
</svg>
